<svg xmlns="http://www.w3.org/2000/svg" viewBox="0 0 200 48" fill="none">
  <circle cx="24" cy="24" r="20" fill="#E60023"/>
  <path fill="#fff" d="M24 14c-4.5 0-8 3.2-8 7.5 0 3.2 2 5.9 4.8 6.9-.1-.9-.2-2.3 0-3.3.2-.9 1.3-5.8 1.3-5.8s-.3-.6-.3-1.5c0-1.4.8-2.5 1.9-2.5.9 0 1.3.7 1.3 1.5 0 .9-.6 2.3-.9 3.6-.3 1.1.6 2 1.7 2 2 0 3.6-2.1 3.6-5.2 0-2.7-1.9-4.6-4.7-4.6-3.2 0-5.1 2.4-5.1 4.9 0 1 .4 2 .8 2.6.1.1.1.2.1.3-.1.4-.3 1.3-.4 1.5-.1.2-.3.3-.5.2-1.4-.6-2.2-2.5-2.2-4.1 0-3.3 2.4-6.4 7-6.4 3.7 0 6.5 2.6 6.5 6.1 0 3.6-2.3 6.6-5.5 6.6-1.1 0-2.1-.6-2.5-1.2l-.7 2.6c-.2.9-.8 2-1.2 2.7.9.3 1.9.5 2.9.5 4.5 0 8-3.2 8-7.5S28.5 14 24 14z"/>
  <text x="52" y="32" font-family="Georgia, serif" font-size="22" font-weight="700" fill="#111">Pinterest</text>
</svg>
